<mxfile host="Electron" modified="2024-12-20T06:09:51.257Z" agent="Mozilla/5.0 (Windows NT 10.0; Win64; x64) AppleWebKit/537.36 (KHTML, like Gecko) draw.io/22.1.21 Chrome/120.0.6099.109 Electron/28.1.0 Safari/537.36" etag="P_Zq7ILpI45FqRxHXEKl" version="22.1.21" type="device">
  <diagram name="Page-1" id="rnr8XACH59fY1wrbSeEC">
    <mxGraphModel dx="1290" dy="621" grid="1" gridSize="10" guides="1" tooltips="1" connect="1" arrows="1" fold="1" page="1" pageScale="1" pageWidth="850" pageHeight="1100" math="0" shadow="0">
      <root>
        <mxCell id="0" />
        <mxCell id="1" parent="0" />
        <mxCell id="QjFFc2FTgE78o1idHpst-4" value="" style="edgeStyle=orthogonalEdgeStyle;rounded=0;orthogonalLoop=1;jettySize=auto;html=1;" edge="1" parent="1" source="QjFFc2FTgE78o1idHpst-1" target="QjFFc2FTgE78o1idHpst-3">
          <mxGeometry relative="1" as="geometry" />
        </mxCell>
        <mxCell id="QjFFc2FTgE78o1idHpst-1" value="" style="strokeWidth=2;html=1;shape=mxgraph.flowchart.start_2;whiteSpace=wrap;" vertex="1" parent="1">
          <mxGeometry x="330" y="120" width="50" height="50" as="geometry" />
        </mxCell>
        <mxCell id="QjFFc2FTgE78o1idHpst-2" value="" style="strokeWidth=2;html=1;shape=mxgraph.flowchart.start_2;whiteSpace=wrap;" vertex="1" parent="1">
          <mxGeometry x="450" y="850" width="50" height="50" as="geometry" />
        </mxCell>
        <mxCell id="QjFFc2FTgE78o1idHpst-6" value="" style="edgeStyle=orthogonalEdgeStyle;rounded=0;orthogonalLoop=1;jettySize=auto;html=1;" edge="1" parent="1" source="QjFFc2FTgE78o1idHpst-3" target="QjFFc2FTgE78o1idHpst-5">
          <mxGeometry relative="1" as="geometry" />
        </mxCell>
        <mxCell id="QjFFc2FTgE78o1idHpst-3" value="Hiển thị danh sách sản phẩm" style="rounded=1;whiteSpace=wrap;html=1;" vertex="1" parent="1">
          <mxGeometry x="295" y="220" width="115" height="40" as="geometry" />
        </mxCell>
        <mxCell id="QjFFc2FTgE78o1idHpst-8" value="" style="edgeStyle=orthogonalEdgeStyle;rounded=0;orthogonalLoop=1;jettySize=auto;html=1;" edge="1" parent="1" source="QjFFc2FTgE78o1idHpst-5" target="QjFFc2FTgE78o1idHpst-7">
          <mxGeometry relative="1" as="geometry" />
        </mxCell>
        <mxCell id="QjFFc2FTgE78o1idHpst-5" value="Xem đánh giá" style="rounded=1;whiteSpace=wrap;html=1;" vertex="1" parent="1">
          <mxGeometry x="297.5" y="310" width="115" height="40" as="geometry" />
        </mxCell>
        <mxCell id="QjFFc2FTgE78o1idHpst-10" value="" style="edgeStyle=orthogonalEdgeStyle;rounded=0;orthogonalLoop=1;jettySize=auto;html=1;" edge="1" parent="1" source="QjFFc2FTgE78o1idHpst-7" target="QjFFc2FTgE78o1idHpst-9">
          <mxGeometry relative="1" as="geometry" />
        </mxCell>
        <mxCell id="QjFFc2FTgE78o1idHpst-7" value="Phản hồi đánh giá" style="rounded=1;whiteSpace=wrap;html=1;" vertex="1" parent="1">
          <mxGeometry x="297.5" y="400" width="115" height="40" as="geometry" />
        </mxCell>
        <mxCell id="QjFFc2FTgE78o1idHpst-12" value="" style="edgeStyle=orthogonalEdgeStyle;rounded=0;orthogonalLoop=1;jettySize=auto;html=1;" edge="1" parent="1" source="QjFFc2FTgE78o1idHpst-9" target="QjFFc2FTgE78o1idHpst-11">
          <mxGeometry relative="1" as="geometry" />
        </mxCell>
        <mxCell id="QjFFc2FTgE78o1idHpst-9" value="Nhập dữ liệu" style="rounded=1;whiteSpace=wrap;html=1;" vertex="1" parent="1">
          <mxGeometry x="307.5" y="490" width="115" height="40" as="geometry" />
        </mxCell>
        <mxCell id="QjFFc2FTgE78o1idHpst-14" value="" style="edgeStyle=orthogonalEdgeStyle;rounded=0;orthogonalLoop=1;jettySize=auto;html=1;" edge="1" parent="1" source="QjFFc2FTgE78o1idHpst-11" target="QjFFc2FTgE78o1idHpst-13">
          <mxGeometry relative="1" as="geometry" />
        </mxCell>
        <mxCell id="QjFFc2FTgE78o1idHpst-11" value="Lưu" style="rounded=1;whiteSpace=wrap;html=1;" vertex="1" parent="1">
          <mxGeometry x="310" y="570" width="115" height="40" as="geometry" />
        </mxCell>
        <mxCell id="QjFFc2FTgE78o1idHpst-22" style="edgeStyle=orthogonalEdgeStyle;rounded=0;orthogonalLoop=1;jettySize=auto;html=1;" edge="1" parent="1" source="QjFFc2FTgE78o1idHpst-13" target="QjFFc2FTgE78o1idHpst-21">
          <mxGeometry relative="1" as="geometry" />
        </mxCell>
        <mxCell id="QjFFc2FTgE78o1idHpst-23" value="Không thành công" style="edgeLabel;html=1;align=center;verticalAlign=middle;resizable=0;points=[];" vertex="1" connectable="0" parent="QjFFc2FTgE78o1idHpst-22">
          <mxGeometry x="-0.477" y="-3" relative="1" as="geometry">
            <mxPoint x="6" y="-3" as="offset" />
          </mxGeometry>
        </mxCell>
        <mxCell id="QjFFc2FTgE78o1idHpst-13" value="" style="strokeWidth=2;html=1;shape=mxgraph.flowchart.decision;whiteSpace=wrap;" vertex="1" parent="1">
          <mxGeometry x="335" y="660" width="65" height="60" as="geometry" />
        </mxCell>
        <mxCell id="QjFFc2FTgE78o1idHpst-19" value="" style="edgeStyle=orthogonalEdgeStyle;rounded=0;orthogonalLoop=1;jettySize=auto;html=1;" edge="1" parent="1" source="QjFFc2FTgE78o1idHpst-15" target="QjFFc2FTgE78o1idHpst-18">
          <mxGeometry relative="1" as="geometry" />
        </mxCell>
        <mxCell id="QjFFc2FTgE78o1idHpst-15" value="Thông báo thành công" style="rounded=1;whiteSpace=wrap;html=1;" vertex="1" parent="1">
          <mxGeometry x="230" y="780" width="115" height="40" as="geometry" />
        </mxCell>
        <mxCell id="QjFFc2FTgE78o1idHpst-16" style="edgeStyle=orthogonalEdgeStyle;rounded=0;orthogonalLoop=1;jettySize=auto;html=1;entryX=0.125;entryY=0;entryDx=0;entryDy=0;entryPerimeter=0;exitX=0;exitY=0.5;exitDx=0;exitDy=0;exitPerimeter=0;" edge="1" parent="1" source="QjFFc2FTgE78o1idHpst-13" target="QjFFc2FTgE78o1idHpst-15">
          <mxGeometry relative="1" as="geometry" />
        </mxCell>
        <mxCell id="QjFFc2FTgE78o1idHpst-17" value="Thành công" style="edgeLabel;html=1;align=center;verticalAlign=middle;resizable=0;points=[];" vertex="1" connectable="0" parent="QjFFc2FTgE78o1idHpst-16">
          <mxGeometry x="-0.3666" y="-1" relative="1" as="geometry">
            <mxPoint as="offset" />
          </mxGeometry>
        </mxCell>
        <mxCell id="QjFFc2FTgE78o1idHpst-20" value="" style="edgeStyle=orthogonalEdgeStyle;rounded=0;orthogonalLoop=1;jettySize=auto;html=1;" edge="1" parent="1" source="QjFFc2FTgE78o1idHpst-18" target="QjFFc2FTgE78o1idHpst-2">
          <mxGeometry relative="1" as="geometry" />
        </mxCell>
        <mxCell id="QjFFc2FTgE78o1idHpst-18" value="Lấy dữ liệu phản hồi mới" style="rounded=1;whiteSpace=wrap;html=1;" vertex="1" parent="1">
          <mxGeometry x="250" y="870" width="115" height="40" as="geometry" />
        </mxCell>
        <mxCell id="QjFFc2FTgE78o1idHpst-24" value="" style="edgeStyle=orthogonalEdgeStyle;rounded=0;orthogonalLoop=1;jettySize=auto;html=1;" edge="1" parent="1" source="QjFFc2FTgE78o1idHpst-21" target="QjFFc2FTgE78o1idHpst-2">
          <mxGeometry relative="1" as="geometry" />
        </mxCell>
        <mxCell id="QjFFc2FTgE78o1idHpst-21" value="Thông báo&amp;nbsp; lỗi" style="rounded=1;whiteSpace=wrap;html=1;" vertex="1" parent="1">
          <mxGeometry x="450" y="750" width="115" height="40" as="geometry" />
        </mxCell>
      </root>
    </mxGraphModel>
  </diagram>
</mxfile>
